<?xml version="1.0" encoding="UTF-8"?>
<svg xmlns="http://www.w3.org/2000/svg" xmlns:xlink="http://www.w3.org/1999/xlink" width="47px" height="47px" viewBox="0 0 47 47" version="1.1">
<g id="surface1">
<path style=" stroke:none;fill-rule:nonzero;fill:rgb(0%,0%,0%);fill-opacity:1;" d="M 20.839844 0.179688 C 17.3125 0.777344 14.292969 2.328125 11.804688 4.824219 C 9.234375 7.386719 7.683594 10.488281 7.105469 14.179688 C 6.894531 15.574219 6.96875 18.449219 7.253906 19.78125 C 7.519531 21.054688 8.097656 22.726562 8.628906 23.820312 C 8.878906 24.324219 12.128906 29.648438 15.855469 35.664062 C 21.023438 43.980469 22.710938 46.632812 22.949219 46.789062 C 23.371094 47.082031 24.089844 47.082031 24.519531 46.789062 C 24.769531 46.625 26.144531 44.394531 31.101562 36.121094 C 38.207031 24.261719 38.253906 24.167969 38.757812 22.976562 C 39.621094 20.902344 39.933594 19.429688 40 17.027344 C 40.054688 15.082031 39.953125 14.015625 39.558594 12.464844 C 38.089844 6.625 33.398438 1.925781 27.558594 0.464844 C 25.578125 -0.03125 22.777344 -0.148438 20.839844 0.179688 Z M 25.722656 2.988281 C 30.691406 3.808594 34.867188 7.359375 36.472656 12.113281 C 36.886719 13.335938 37.078125 14.261719 37.171875 15.546875 C 37.355469 18.046875 36.820312 20.632812 35.664062 22.808594 C 35.398438 23.316406 32.597656 28.035156 29.449219 33.304688 L 23.710938 42.867188 L 17.71875 33.210938 C 14.414062 27.894531 11.539062 23.203125 11.320312 22.792969 C 9.90625 20.148438 9.4375 16.824219 10.050781 13.8125 C 11.152344 8.441406 15.40625 4.183594 20.792969 3.074219 C 22.355469 2.75 24.089844 2.722656 25.722656 2.988281 Z M 25.722656 2.988281 "/>
<path style=" stroke:none;fill-rule:nonzero;fill:rgb(0%,0%,0%);fill-opacity:1;" d="M 21.710938 8.40625 C 20.507812 8.671875 19.085938 9.378906 18.113281 10.207031 C 16.78125 11.324219 15.726562 13.097656 15.386719 14.796875 C 15.191406 15.703125 15.203125 17.339844 15.386719 18.246094 C 16.046875 21.460938 18.609375 24.003906 21.839844 24.65625 C 22.886719 24.867188 24.8125 24.792969 25.796875 24.515625 C 28.742188 23.664062 31.019531 21.203125 31.625 18.183594 C 31.820312 17.226562 31.773438 15.21875 31.535156 14.363281 C 31.167969 13.050781 30.332031 11.621094 29.367188 10.65625 C 28.414062 9.691406 26.972656 8.855469 25.660156 8.488281 C 24.871094 8.269531 22.566406 8.214844 21.710938 8.40625 Z M 25.179688 11.335938 C 26.027344 11.621094 26.714844 12.050781 27.339844 12.683594 C 30.265625 15.601562 29.027344 20.488281 25.035156 21.773438 C 24.226562 22.039062 22.757812 22.03125 21.941406 21.761719 C 20.222656 21.210938 18.808594 19.800781 18.257812 18.082031 C 17.964844 17.183594 17.984375 15.785156 18.296875 14.886719 C 18.609375 13.996094 19.03125 13.316406 19.664062 12.683594 C 21.152344 11.195312 23.246094 10.683594 25.179688 11.335938 Z M 25.179688 11.335938 "/>
</g>
</svg>
